<svg width="40" height="38" viewBox="0 0 40 38" fill="none" xmlns="http://www.w3.org/2000/svg">
<g >
<path d="M26.4581 5.39302C26.4562 5.00638 26.79 4.82045 27.1766 4.8207C29.7845 4.82236 32.3916 4.82408 34.9995 4.82658C35.7594 4.82747 35.975 5.12098 35.6927 5.77691C35.0295 7.31784 34.3692 8.86056 33.6934 10.397C33.5948 10.6207 33.59 10.8051 33.6895 11.0306C34.374 12.5885 35.044 14.1509 35.7169 15.7124C35.9682 16.2968 35.7343 16.6091 35.0459 16.6091C32.8513 16.61 30.6568 16.6109 28.4632 16.6091C26.8792 16.6075 25.7516 15.755 25.4682 14.3935C25.4081 14.1049 25.5514 13.8466 25.8452 13.8225C26.2976 13.7858 26.4281 13.6605 26.4513 13.2346C26.4581 13.1013 26.4552 12.9679 26.4552 12.8346C26.4552 10.3541 26.4542 7.87354 26.4581 5.39302Z" fill="#E61E14"/>
<path d="M16.4745 29.965C16.1713 29.9904 15.8619 29.983 15.5578 29.9715C14.7012 29.939 13.8439 29.9153 12.9893 29.8523C11.4434 29.7377 9.90336 29.5677 8.38456 29.2634C7.26601 29.0388 6.16195 28.7704 5.15748 28.2335C4.86261 28.076 4.60062 27.8818 4.37633 27.6456C3.87167 27.1158 3.87457 26.4491 4.38503 25.9212C4.96122 25.3261 5.72981 25.0299 6.51869 24.7811C8.01719 24.3096 9.56982 24.0769 11.136 23.9024C12.2803 23.7751 13.4261 23.6786 14.577 23.6373C14.8404 23.6278 15.1036 23.7309 15.1055 23.9946C15.1123 24.6192 15.1162 25.2438 15.1046 25.8684C15.0968 26.2639 15.0118 26.3364 14.5941 26.3543C14.5584 26.3561 14.5216 26.3552 14.4858 26.3561C13.9899 26.3668 13.8246 26.5932 13.9677 27.046C14.0247 27.2259 14.1726 27.2133 14.3128 27.2151C14.8068 27.2223 15.3008 27.2178 15.7949 27.2178C16.868 27.2178 17.9401 27.2205 19.0132 27.2151C19.1737 27.2142 19.3845 27.2688 19.4638 27.089C19.5517 26.8912 19.544 26.6693 19.4647 26.4661C19.4144 26.3382 19.2636 26.3677 19.1476 26.357C18.9656 26.3404 18.7756 26.3755 18.5984 26.3283C18.4906 26.2996 18.38 26.2223 18.3761 26.1109C18.3553 25.5048 18.3234 24.8986 18.359 24.2929C18.3769 23.9883 18.5093 23.6822 18.8131 23.71C20.4711 23.8657 22.1137 24.1028 23.7098 24.5574C24.5644 24.8008 25.3997 25.0899 26.0707 25.6742C26.8566 26.3579 26.8557 27.2035 26.0774 27.8943C25.5389 28.3722 24.8757 28.6299 24.1922 28.8554C22.7537 29.3297 21.2561 29.5623 19.7499 29.7547C18.6633 29.8934 17.5708 29.957 16.4745 29.965Z" fill="#61DE56"/>
<path d="M26.5681 4.81361C26.5671 7.57781 26.5661 10.3429 26.5652 13.1071C26.5652 13.8042 26.4366 13.9241 25.6902 13.925C25.5936 13.925 25.4979 13.9268 25.4012 13.9277C23.2504 13.9268 21.0996 13.926 18.948 13.9259C18.6415 13.9259 18.3467 13.7966 18.3467 13.4901C18.3428 9.85252 18.3428 6.21495 18.3467 2.57738C18.3467 2.27086 18.6415 2.14161 18.948 2.14153C20.485 2.14115 22.0226 2.13924 23.5595 2.14249C25.2745 2.14607 26.4907 3.22973 26.5681 4.81361Z" fill="#FD3018"/>
<path d="M18.0655 26.1433C18.3454 26.1416 18.6284 26.2453 18.9083 26.2472C19.077 26.2484 19.2457 26.2491 19.4142 26.2471C19.7699 26.2426 19.6501 26.5129 19.6143 26.6283C19.5427 26.8574 19.8869 27.2914 19.4161 27.3021C17.6256 27.3442 15.8332 27.3174 14.0418 27.3218C13.8784 27.3218 13.8494 27.2574 13.8388 27.1223C13.7711 26.2596 13.7673 26.2516 14.6828 26.2543C14.9332 26.2552 15.0115 26.1952 15.0057 25.9581C14.9864 25.1796 14.9912 24.401 14.9873 23.6216C14.9912 23.4767 14.9989 23.3317 14.9989 23.1867C14.9999 16.0351 14.9989 8.88345 14.9999 1.73181C14.9999 1.62728 15.0062 1.5274 15.0189 1.43208C15.1851 0.182114 17.2803 0.201737 17.4168 1.4553C17.4371 1.64411 17.4294 1.83382 17.4294 2.02353C17.4294 9.75324 17.4294 17.483 17.4294 25.2118C17.4294 25.312 17.4294 25.4122 17.4294 25.5133C17.4265 26.1746 17.442 26.1433 18.0655 26.1433Z" fill="#546F7A"/>
<path d="M18.4729 25.3415C18.4714 25.8416 18.0663 26.236 17.5665 26.2509C17.3877 26.2563 17.291 26.2044 17.3074 26.0236C17.3161 25.935 17.3084 25.8455 17.3084 25.756C17.3084 17.7999 17.3035 9.84381 17.3161 1.8877C17.3171 1.11008 17.0503 0.523054 16.2923 0.156165C16.2484 0.13449 16.2775 0.063279 16.3249 0.0513757C17.3331 -0.201275 18.4206 0.510006 18.4637 1.48144C18.4733 1.70247 18.4733 1.92439 18.4772 2.14542C18.4733 3.48053 18.4656 4.81565 18.4666 6.15166C18.4675 8.74494 18.4733 11.3373 18.4772 13.9306C18.4733 15.6997 18.4666 17.4688 18.4666 19.238C18.4666 20.6469 18.473 22.0567 18.4769 23.4657C18.4771 23.5378 18.5189 23.6071 18.5147 23.6791C18.5109 23.745 18.4771 23.8077 18.477 23.8738C18.4758 24.3633 18.4743 24.8525 18.4729 25.3415Z" fill="#334347"/>
<path d="M18.5755 23.7805C18.524 23.7765 18.4844 23.7332 18.4844 23.6815C18.4844 23.625 18.5315 23.5801 18.588 23.5826C21.3782 23.7033 24.1619 23.8838 26.8711 24.5804C27.777 24.813 28.6645 25.0967 29.4041 25.6676C30.2819 26.345 30.278 27.2309 29.3944 27.9119C28.6645 28.4738 27.7876 28.7548 26.8953 28.9884C25.1667 29.4403 23.3946 29.6595 21.608 29.8072C19.9076 29.9481 18.2062 30.0311 16.4992 29.9909C16.4663 29.9902 16.4055 29.9803 16.4252 29.9539C16.4329 29.9423 16.4416 29.936 16.4493 29.936C17.8125 29.8707 19.1669 29.7383 20.5175 29.5495C21.7888 29.3714 23.0427 29.1396 24.2541 28.7378C24.9008 28.524 25.5167 28.2636 26.0329 27.817C26.7416 27.2041 26.7387 26.3674 26.0242 25.7526C25.3581 25.179 24.5402 24.8953 23.704 24.6519C22.2954 24.2412 20.8385 24.0345 19.3796 23.8511C19.113 23.8157 18.844 23.8013 18.5755 23.7805Z" fill="#13C37B"/>
<path d="M16.4167 29.9373C16.4315 29.9367 16.4441 29.9487 16.4441 29.9635C16.4442 29.9774 16.4333 29.989 16.4194 29.989C16.3903 29.9889 16.3612 29.9889 16.3321 29.9888C16.2298 29.9886 16.2175 29.9281 16.3195 29.9348C16.3521 29.937 16.3846 29.9387 16.4167 29.9373Z" fill="#FEC53A"/>
</g>
<defs>

</defs>
</svg>


