<svg width="30" height="30" viewBox="0 0 30 30" fill="none" xmlns="http://www.w3.org/2000/svg">
<path d="M29.999 15.174C29.823 15.7455 29.5589 16.2437 29.0195 16.5062C28.3859 16.8144 27.7865 16.7434 27.2296 16.2999C27.1052 16.2005 26.9944 16.079 26.8844 15.9608C23.2167 12.0213 19.5498 8.08104 15.8836 4.14077C15.2501 3.46001 14.7433 3.46164 14.1052 4.14648C10.417 8.10876 6.72963 12.071 3.04146 16.0325C2.3753 16.7483 1.61202 16.8894 0.864678 16.445C-0.0116497 15.9241 -0.274927 14.6449 0.321431 13.7799C0.425376 13.629 0.546772 13.4896 0.670444 13.3567C4.35026 9.40098 8.05436 5.4705 11.7023 1.48132C13.4838 -0.466397 16.521 -0.525912 18.2987 1.49599C19.3222 2.66103 20.4026 3.76819 21.5058 4.95442C21.5058 4.30057 21.505 3.7103 21.5058 3.11922C21.5073 2.54852 21.6659 2.04142 22.0703 1.65579C22.6189 1.13319 23.2554 1.02068 23.9201 1.3313C24.628 1.66231 24.9481 2.29905 24.9504 3.11433C24.9565 4.86719 24.955 6.61923 24.9481 8.3721C24.9474 8.57673 25.002 8.71941 25.1371 8.86371C26.4679 10.2831 27.7873 11.7148 29.1204 13.1317C29.5058 13.5418 29.8624 13.9617 29.999 14.5454C29.999 14.7541 29.999 14.9637 29.999 15.174Z" fill="black"/>
<path d="M4.153 22.8328C4.153 21.5422 4.15831 20.2516 4.14996 18.961C4.14768 18.612 4.25694 18.3373 4.48532 18.0927C7.76073 14.5788 11.0331 11.0609 14.3078 7.54537C14.7706 7.04804 15.2213 7.0456 15.6803 7.53803C18.955 11.0535 22.2266 14.5715 25.5028 18.0854C25.7387 18.3381 25.8465 18.621 25.845 18.9822C25.8374 21.5112 25.8442 24.0402 25.8404 26.5684C25.8374 28.5128 24.5301 29.9592 22.7251 29.9861C21.1629 30.0089 19.6006 29.9861 18.0377 29.9975C17.8154 29.9991 17.7934 29.9111 17.7934 29.7089C17.7994 27.1693 17.7941 24.6305 17.8025 22.0908C17.8032 21.8414 17.7615 21.7501 17.5066 21.7517C15.8267 21.7639 14.1477 21.7623 12.4679 21.7525C12.2501 21.7509 12.1902 21.8079 12.1909 22.0476C12.1993 24.5766 12.1924 27.1057 12.2016 29.6339C12.2023 29.9029 12.1613 30.0024 11.8791 29.9991C10.2782 29.9787 8.67576 30.013 7.07485 29.9722C5.49746 29.9322 4.18107 28.4639 4.15982 26.7673C4.14313 25.4563 4.15679 24.1437 4.15679 22.8328C4.15451 22.8328 4.15375 22.8328 4.153 22.8328Z" fill="black"/>
</svg>


