<svg width="30" height="30" viewBox="0 0 30 30" fill="none" xmlns="http://www.w3.org/2000/svg">
<g clip-path="url(#clip0_1_117)">
<path d="M29.9563 10.474C29.9606 10.5606 29.9676 10.648 29.9676 10.7345C29.9685 16.292 29.9694 21.8496 29.9667 27.408C29.9659 28.7183 29.2433 29.664 28.0495 29.9394C27.8244 29.9909 27.5957 29.9892 27.368 29.9892C19.1223 29.9901 10.8766 29.977 2.63094 30.0014C1.10903 30.0058 0.0182204 28.8441 0.0234563 27.4735C0.0435272 21.8618 0.0313101 16.2492 0.0321828 10.6366C0.0321828 10.5824 0.0400366 10.5282 0.0435272 10.474C0.201477 10.3394 0.394333 10.3761 0.574972 10.3761C2.50004 10.3726 4.42598 10.3744 6.35105 10.3744C14.0094 10.3744 21.6669 10.3735 29.3253 10.377C29.5391 10.3761 29.7652 10.3228 29.9563 10.474Z" fill="#E61E14"/>
<path d="M29.9594 10.4752C19.9885 10.4752 10.0185 10.4752 0.0475386 10.4752C0.0396847 10.4551 0.0248497 10.435 0.0248497 10.4149C0.0187411 8.61688 -0.0405992 6.81799 0.0492839 5.02258C0.11386 3.7464 1.16802 2.79975 2.44384 2.77265C2.95521 2.76216 3.46659 2.76303 3.97709 2.77352C4.16034 2.77702 4.2223 2.7237 4.21794 2.53577C4.20572 2.05676 4.20921 1.57688 4.21532 1.09787C4.22405 0.455408 4.6307 0.0166092 5.22149 0.00262357C5.82623 -0.011362 6.28001 0.425688 6.30008 1.06728C6.31492 1.55677 6.31143 2.04802 6.30008 2.53839C6.29572 2.72632 6.35768 2.7744 6.53832 2.77352C7.85428 2.76653 9.17023 2.76566 10.4862 2.7744C10.6869 2.77614 10.7148 2.69748 10.7113 2.52615C10.7017 2.05763 10.7026 1.58912 10.7096 1.1206C10.7183 0.453659 11.1538 -0.00262103 11.7681 0.00174947C12.3694 0.00611997 12.7891 0.455408 12.797 1.11011C12.8022 1.58912 12.8048 2.069 12.7944 2.548C12.7909 2.71758 12.8406 2.77352 13.0134 2.77265C14.3407 2.76653 15.6671 2.76653 16.9944 2.77265C17.1672 2.77352 17.2169 2.71758 17.2143 2.548C17.2047 2.05763 17.2056 1.56726 17.2126 1.07689C17.2213 0.444918 17.6445 0.00611997 18.238 0.000875369C18.8261 -0.00436923 19.2764 0.432681 19.2965 1.05329C19.3122 1.5323 19.3078 2.01218 19.2965 2.49119C19.2921 2.68611 19.32 2.77614 19.5539 2.7744C20.8594 2.76216 22.164 2.76478 23.4695 2.77177C23.6501 2.77265 23.7138 2.72632 23.7086 2.53751C23.6964 2.069 23.6999 1.60048 23.706 1.13196C23.7147 0.45803 24.1397 0.00174947 24.7514 1.26824e-06C25.3675 -0.000872832 25.7873 0.450163 25.7934 1.12759C25.7977 1.59611 25.8021 2.06463 25.7907 2.53314C25.7855 2.7202 25.8475 2.77003 26.0307 2.77177C26.6494 2.77964 27.2734 2.70185 27.8869 2.80936C29.1644 3.034 29.9542 3.92209 29.983 5.24723C30.0196 6.94648 29.9926 8.6466 29.9908 10.3467C29.9891 10.3913 29.9699 10.4333 29.9594 10.4752Z" fill="#FD3018"/>
<path d="M6.61931 16.3801C6.3802 16.3801 6.14109 16.3897 5.90286 16.3783C5.34436 16.3521 4.89844 15.8836 4.89844 15.3355C4.89844 14.7813 5.33738 14.3111 5.90024 14.2936C6.3994 14.2779 6.89943 14.2761 7.39771 14.2945C7.95359 14.3155 8.39777 14.8041 8.3873 15.3504C8.37595 15.8906 7.94486 16.3469 7.40033 16.3775C7.14028 16.3914 6.87936 16.3801 6.61931 16.3801Z" fill="#61DE56"/>
<path d="M23.3522 16.3807C23.1131 16.3807 22.874 16.3895 22.6358 16.379C22.0738 16.3563 21.6278 15.9 21.6174 15.3484C21.6069 14.7829 22.0572 14.3074 22.6384 14.2916C23.1262 14.2785 23.6157 14.2768 24.1035 14.2925C24.6629 14.3109 25.108 14.7864 25.1062 15.3362C25.1045 15.8877 24.6612 16.3519 24.1009 16.3772C23.8522 16.3895 23.6018 16.3799 23.3522 16.3807Z" fill="#13C37B"/>
<path d="M6.64168 19.1841C6.89126 19.1841 7.14083 19.1745 7.39041 19.1858C7.92884 19.2103 8.34684 19.6255 8.38698 20.1631C8.4245 20.6639 8.05886 21.163 7.53702 21.2356C6.94623 21.3186 6.3441 21.3178 5.75419 21.2365C5.23147 21.1648 4.86583 20.6683 4.90074 20.1657C4.93914 19.615 5.36324 19.2051 5.92523 19.1841C6.16347 19.1753 6.40257 19.1823 6.64168 19.1823C6.64168 19.1832 6.64168 19.1832 6.64168 19.1841Z" fill="#61DE56"/>
<path d="M23.372 21.2657C23.1224 21.2657 22.872 21.2814 22.6233 21.2622C22.036 21.2167 21.5961 20.7368 21.618 20.1853C21.6398 19.6136 22.0831 19.1897 22.6843 19.1783C23.1399 19.1696 23.5963 19.1696 24.0518 19.1792C24.6338 19.1914 25.0693 19.6066 25.106 20.1661C25.14 20.7028 24.7237 21.194 24.153 21.2552C23.8956 21.2832 23.6329 21.2596 23.3729 21.2596C23.372 21.2622 23.372 21.2639 23.372 21.2657Z" fill="#13C37B"/>
<path d="M6.652 26.1372C6.39195 26.1372 6.13015 26.1486 5.87098 26.1346C5.35262 26.1058 4.94335 25.6906 4.90146 25.1661C4.86219 24.6749 5.20951 24.1766 5.71215 24.0953C6.32301 23.9974 6.94695 24.0027 7.55868 24.0918C8.06133 24.1644 8.41737 24.66 8.3877 25.1495C8.35454 25.6862 7.93829 26.1093 7.40161 26.1364C7.15203 26.1486 6.90158 26.1381 6.652 26.1372Z" fill="#61DE56"/>
<path d="M23.3697 26.1446C23.1097 26.1446 22.8479 26.1568 22.5887 26.142C22.0704 26.1131 21.6611 25.6962 21.6201 25.1717C21.5817 24.6805 21.929 24.1823 22.4325 24.1027C23.0434 24.0057 23.6673 24.0101 24.2791 24.1001C24.7808 24.1735 25.1377 24.67 25.1063 25.1586C25.0723 25.6953 24.6552 26.1166 24.1185 26.1437C23.8698 26.156 23.6193 26.1455 23.3697 26.1455C23.3697 26.1446 23.3697 26.1446 23.3697 26.1446Z" fill="#13C37B"/>
<path d="M12.2054 16.3795C11.9663 16.3795 11.7272 16.3874 11.4889 16.3778C10.9086 16.3533 10.4758 15.8892 10.4845 15.3123C10.4932 14.7502 10.9243 14.3062 11.4977 14.2904C11.975 14.2782 12.4532 14.2782 12.9297 14.2904C13.5109 14.3044 13.9594 14.7703 13.9568 15.3385C13.9542 15.9066 13.5056 16.3603 12.9209 16.3787C12.6827 16.3865 12.4436 16.3804 12.2054 16.3795Z" fill="#13C37B"/>
<path d="M17.7573 16.3799C17.5182 16.3799 17.2791 16.3895 17.0408 16.3772C16.4806 16.3484 16.0443 15.8834 16.0469 15.3292C16.0495 14.7715 16.4841 14.31 17.0496 14.2925C17.5374 14.2776 18.0261 14.2776 18.5147 14.2916C19.0837 14.3082 19.5148 14.7619 19.52 15.3222C19.5253 15.9009 19.0924 16.3554 18.506 16.3781C18.2564 16.3877 18.0069 16.3799 17.7573 16.3799Z" fill="#61DE56"/>
<path d="M17.7711 26.1395C17.5215 26.1395 17.2711 26.15 17.0223 26.1369C16.5162 26.1098 16.1008 25.7051 16.052 25.206C16.0013 24.6841 16.333 24.1815 16.8496 24.0985C17.4709 23.9989 18.1062 23.998 18.7275 24.0985C19.2467 24.1824 19.56 24.6675 19.5173 25.2086C19.4771 25.7112 19.0705 26.1098 18.5521 26.1369C18.2929 26.1509 18.032 26.1404 17.7711 26.1395Z" fill="#61DE56"/>
<path d="M12.2114 21.2762C11.9837 21.2762 11.755 21.2858 11.5281 21.2745C10.9085 21.243 10.4783 20.7998 10.4844 20.2098C10.4905 19.6163 10.9251 19.1959 11.5569 19.1854C12.0125 19.1784 12.4688 19.1766 12.9235 19.1871C13.4864 19.2002 13.9227 19.6189 13.9567 20.1574C13.9908 20.7019 13.6173 21.1757 13.0561 21.2509C12.7795 21.2876 12.4942 21.257 12.2123 21.257C12.2114 21.264 12.2114 21.2701 12.2114 21.2762Z" fill="#13C37B"/>
<path d="M17.7844 19.183C18.0339 19.1838 18.2835 19.1742 18.5331 19.1856C19.0671 19.2101 19.4825 19.6139 19.5174 20.1296C19.555 20.6855 19.2268 21.1576 18.6814 21.2353C18.0915 21.3193 17.4894 21.3184 16.8986 21.2362C16.3584 21.161 16.0076 20.6672 16.0504 20.1349C16.0923 19.6069 16.519 19.2048 17.0688 19.1847C17.3061 19.1751 17.5452 19.1821 17.7844 19.183Z" fill="#61DE56"/>
<path d="M12.2278 26.1388C11.9677 26.1388 11.7068 26.1501 11.4467 26.1361C10.9319 26.1082 10.5244 25.7026 10.4877 25.2009C10.4484 24.6545 10.7591 24.1799 11.2836 24.0969C11.9049 23.999 12.5402 23.9981 13.1615 24.0995C13.6598 24.1808 13.9923 24.6755 13.9547 25.1807C13.9164 25.6956 13.4984 26.1108 12.9756 26.137C12.7269 26.1501 12.4773 26.1396 12.2278 26.1388Z" fill="#13C37B"/>
</g>
<defs>
<clipPath id="clip0_1_117">
<rect width="30" height="30" rx="15" fill="white"/>
</clipPath>
</defs>
</svg>


