<svg width="38" height="38" viewBox="0 0 38 38" fill="none" xmlns="http://www.w3.org/2000/svg">
<g >
<path d="M33.9637 14.3236C33.9634 14.4642 33.9991 14.6037 33.9991 14.7443C33.9991 14.9161 33.9991 15.0879 33.9991 15.2597C33.9991 15.3984 33.9638 15.5358 33.9639 15.6746C33.964 15.8127 33.9991 15.95 33.9991 16.0882C33.9991 16.1117 33.9991 16.1352 33.9991 16.1587C33.9991 16.246 33.9916 16.3331 33.9811 16.4197C33.9334 16.8143 33.9437 17.2136 33.8988 17.6081C33.7687 18.757 33.4076 19.8413 32.9657 20.9017C32.3719 22.3272 31.5694 23.6291 30.5642 24.7961C28.3151 27.4074 25.5139 29.1131 22.1312 29.8312C21.5814 29.9478 21.0145 29.9308 20.4548 29.9719C20.4365 29.9731 20.4179 29.9723 20.3992 29.9711C20.2846 29.9637 20.1667 30.0006 20.0519 30.0006C19.9756 30.0006 19.9012 29.9768 19.8254 29.968C19.8135 29.9666 19.8015 29.9659 19.7895 29.9659C19.6895 29.9659 19.5911 30.0006 19.4911 30.0006C19.4435 30.0006 19.3959 30.0006 19.3483 30.0006C19.1213 30.0006 18.865 29.9187 18.8628 29.6917C18.8487 28.6126 18.8464 27.5335 18.8645 26.4543C18.8657 26.3864 18.8768 26.3184 18.9085 26.2574C18.9818 26.061 19.1576 26.0593 19.3217 26.0528C20.5902 26.0048 21.817 25.7615 23.0016 25.3002C24.1769 24.8424 25.2437 24.2029 26.1985 23.3823C27.7835 22.0201 28.9036 20.3372 29.5273 18.3467C30.4024 15.553 30.1961 12.8251 28.937 10.1757C28.4241 9.09713 27.7506 8.12645 26.9165 7.28649C25.1745 5.5333 23.0807 4.43016 20.6183 4.06909C20.1846 4.0052 19.7496 3.94893 19.3088 3.946C19.1541 3.94482 18.9906 3.93369 18.9126 3.75667C18.854 3.62771 18.8563 3.48997 18.8557 3.35339C18.8516 2.39737 18.8511 1.44136 18.8563 0.485923C18.8586 0.144656 19.1837 0 19.525 0C19.7592 0 19.9935 0 20.2279 0C20.6746 0.049237 21.1236 0.0562709 21.5708 0.094371C22.5069 0.174674 23.3955 0.456615 24.2689 0.780759C25.9306 1.39739 27.4464 2.2737 28.7905 3.43018C31.1527 5.46296 32.7781 7.96936 33.6192 10.9816C33.8595 11.8427 33.9363 12.7178 33.9686 13.6029C33.972 13.7152 33.9973 13.8321 33.9973 13.9445C33.9973 13.969 33.9973 13.9935 33.9973 14.018C33.9973 14.0867 33.9836 14.1544 33.9723 14.2221C33.9666 14.2559 33.9637 14.2898 33.9637 14.3236Z" fill="#E61E14"/>
<path d="M18.9546 26.1261C19.0039 26.1609 19.0038 26.2304 19.0037 26.2908C19.0028 27.3112 19.0018 28.3316 19.0009 29.352C19.0006 29.709 18.711 29.9982 18.354 29.9982C18.3372 29.9982 18.3205 29.9982 18.3037 29.9982C18.2228 29.9982 18.1439 29.9644 18.063 29.9644C17.9822 29.9644 17.9032 29.9982 17.8223 29.9982C17.8052 29.9982 17.788 29.9982 17.7709 29.9982C17.7313 29.9982 17.6918 29.9944 17.6527 29.988C17.2806 29.9271 16.9027 29.9355 16.5285 29.9015C15.2536 29.7866 14.0666 29.3599 12.9019 28.8658C11.4987 28.2703 10.2297 27.4508 9.08841 26.4456C7.75491 25.2709 6.62422 23.9257 5.75905 22.3636C5.02577 21.0389 4.49706 19.6403 4.18522 18.1603C4.06506 17.5893 4.0762 17.0044 4.02931 16.4258C4.02131 16.3333 4 16.2363 4 16.1434C4 16.116 4 16.0885 4 16.061C4 16.0185 4.02682 15.9788 4.02682 15.9364C4.02682 15.8939 4 15.8542 4 15.8118C4 15.2794 4 14.7475 4 14.2151C4 14.1532 4.03209 14.0938 4.03209 14.032C4.03209 13.9701 4 13.9107 4 13.8488C4 13.8182 4 13.7876 4 13.757C4 13.7255 4.00272 13.6939 4.00745 13.6627C4.06806 13.2628 4.05497 12.8569 4.09672 12.4564C4.22567 11.2296 4.63246 10.0801 5.10725 8.95293C5.7104 7.52037 6.54567 6.22848 7.57144 5.06672C8.75372 3.72795 10.1095 2.59608 11.6833 1.73267C12.9928 1.01405 14.3732 0.495301 15.8327 0.185811C16.406 0.0644771 16.9927 0.0762001 17.573 0.0287216C17.7041 0.0182815 17.8433 0 17.9748 0C18.0699 0 18.1656 0.0312764 18.2607 0.0327001C18.2919 0.0331677 18.3234 0.0308245 18.3548 0.0288418C18.4327 0.023929 18.5116 0.0239331 18.5895 0.0288323C18.6576 0.0331118 18.7258 0.0390963 18.7913 0.014841C18.8133 0.00667631 18.8362 0 18.8597 0C18.937 0 18.9998 0.0626708 18.9998 0.140026C19.001 1.35376 19.0021 2.5675 19.0032 3.78123C19.0032 3.79251 19.0012 3.80366 18.9973 3.81424C18.9909 3.83172 18.9794 3.84703 18.9638 3.85722C18.6932 4.0342 18.374 3.97021 18.0824 3.9964C15.7993 4.20332 13.7612 5.01104 11.9975 6.47232C9.71442 8.36385 8.37154 10.7993 8.03275 13.7377C7.67988 16.7998 8.49874 19.5653 10.4413 21.9609C12.2097 24.1414 14.5144 25.4391 17.2817 25.9086C17.7231 25.9837 18.1715 26.0165 18.6187 26.0487C18.7348 26.0569 18.8543 26.0481 18.9546 26.1261Z" fill="#FD3018"/>
<path d="M33.9962 14.323C33.9962 14.3793 33.9387 14.3899 33.9376 14.3336C33.9374 14.3265 33.9375 14.3194 33.9378 14.3122C33.9399 14.2569 33.9962 14.2677 33.9962 14.323Z" fill="#E61E14"/>
<path d="M33.9962 15.6814C33.9962 15.7367 33.94 15.7478 33.9378 15.6926C33.9375 15.6855 33.9374 15.6784 33.9376 15.6712C33.9387 15.6149 33.9962 15.6251 33.9962 15.6814Z" fill="#E61E14"/>
<path d="M18.4927 0.0457737C18.4794 0.0532434 18.4636 0.0538958 18.4484 0.0537078C18.4433 0.0536442 18.4381 0.0536507 18.433 0.0537127C18.3227 0.0550346 18.3363 0 18.4466 0C18.4663 0 18.488 0.00264213 18.501 0.0175991C18.5101 0.0281283 18.5073 0.0375198 18.4927 0.0457737Z" fill="#E61E14"/>
<path d="M18.4984 0.0553992C18.4826 0.0548584 18.4706 0.0407635 18.472 0.0249576C18.4734 0.0109154 18.485 0 18.4991 0C18.5163 0 18.5336 0 18.5508 0C18.6323 0 18.6429 0.0591045 18.5615 0.0573865C18.5405 0.0569438 18.5195 0.056116 18.4984 0.0553992Z" fill="#E61E14"/>
<path d="M19.8009 29.9967C19.755 29.9967 19.7449 29.9464 19.7907 29.9454C19.7982 29.9452 19.8057 29.9454 19.8132 29.9461C19.8563 29.9499 19.8443 29.9967 19.8009 29.9967Z" fill="#E61E14"/>
<path d="M18.0482 30.0029C18.0081 30.0029 17.9907 29.9558 18.03 29.9476C18.0411 29.9453 18.0522 29.9448 18.0633 29.9458C18.1071 29.9497 18.0922 30.0029 18.0482 30.0029Z" fill="#E61E14"/>
<path d="M4 14.0238C4 13.9913 4.03912 13.9742 4.04863 14.0053C4.05212 14.0167 4.0526 14.0282 4.05056 14.0396C4.04431 14.0747 4 14.0594 4 14.0238Z" fill="#E61E14"/>
<path d="M4 15.9467C4 15.9222 4.03068 15.9106 4.03659 15.9344C4.03882 15.9434 4.03852 15.9523 4.03516 15.9613C4.02722 15.9825 4 15.9693 4 15.9467Z" fill="#E61E14"/>
<path d="M19.009 7.51066C19.0085 7.50237 19.0152 7.49545 19.0235 7.49561C19.1943 7.49892 19.3667 7.51879 19.5346 7.49887C19.8083 7.46663 19.8945 7.54635 19.8921 7.84001C19.8769 9.80246 19.8845 11.7643 19.8845 13.7268C19.8845 14.1195 19.8845 14.1195 20.2631 14.1195C21.4349 14.1195 22.606 14.1242 23.7777 14.1148C23.9858 14.113 24.072 14.1506 24.0603 14.3827C24.0397 14.7918 24.0403 15.2033 24.0603 15.6124C24.0714 15.841 23.9905 15.8832 23.7795 15.8821C22.2953 15.8733 20.8118 15.8774 19.3276 15.878C19.2246 15.878 19.1215 15.8828 19.0184 15.8863C19.0115 15.8866 19.0057 15.8811 19.0055 15.8742C19.0053 15.8703 19.0033 15.8666 19.0002 15.8643C18.8347 15.7406 18.8652 15.5551 18.864 15.3862C18.8564 14.3932 18.8605 13.4003 18.8605 12.4067C18.8605 10.946 18.8564 9.48594 18.8646 8.02524C18.8657 7.85036 18.8194 7.65145 19.0025 7.52346C19.0067 7.52056 19.0092 7.51571 19.009 7.51066Z" fill="#13C37B"/>
<path d="M18.4153 7.51239C18.7373 7.54664 18.9996 7.78219 18.9994 8.10597C18.9985 10.4137 18.9975 12.7214 18.9965 15.029C18.9963 15.4982 18.5344 16.1344 18.175 15.8329C17.9956 15.6822 18.1205 15.3188 18.1199 15.0503C18.1152 12.6412 18.1205 10.2316 18.1117 7.82246C18.1111 7.58566 18.1644 7.48425 18.4153 7.51239Z" fill="#61DE56"/>
</g>
<defs>

</defs>
</svg>


